<svg xmlns="http://www.w3.org/2000/svg" xmlns:xlink="http://www.w3.org/1999/xlink" version="1.1" width="21" height="22" enable-background="new 0 0 21 22" xml:space="preserve"><rect id="backgroundrect" width="100%" height="100%" x="0" y="0" fill="none" stroke="none"/>

<g class="currentLayer" style=""><title>Layer 1</title><g id="calendar_1_" class="selected">
	<path d="M19.251,2.025h-2.845V0.648c0-0.381-0.294-0.689-0.656-0.689c-0.363,0-0.656,0.308-0.656,0.689v1.377h-3.938V0.648   c0-0.381-0.294-0.689-0.655-0.689c-0.363,0-0.657,0.308-0.657,0.689v1.377H5.906V0.648c0-0.381-0.294-0.689-0.656-0.689   c-0.363,0-0.657,0.308-0.657,0.689v1.377H1.75C0.784,2.025,0,2.847,0,3.862v16.302C0,21.179,0.784,22,1.75,22h17.501   C20.217,22,21,21.179,21,20.164V3.862C21,2.847,20.217,2.025,19.251,2.025z M19.688,20.164c0,0.253-0.195,0.459-0.437,0.459H1.75   c-0.241,0-0.438-0.206-0.438-0.459V3.862c0-0.253,0.196-0.459,0.438-0.459h2.844v1.378c0,0.381,0.294,0.689,0.657,0.689   c0.362,0,0.656-0.308,0.656-0.689V3.403h3.938v1.378c0,0.381,0.294,0.689,0.657,0.689c0.361,0,0.655-0.308,0.655-0.689V3.403h3.938   v1.378c0,0.381,0.293,0.689,0.656,0.689c0.362,0,0.656-0.308,0.656-0.689V3.403h2.845c0.241,0,0.437,0.206,0.437,0.459V20.164z" id="svg_1"/>
	<rect x="4.593999862670898" y="8.225000381469727" width="2.625" height="2.065999984741211" id="svg_2"/>
	<rect x="4.593999862670898" y="11.668000221252441" width="2.625" height="2.066999912261963" id="svg_3"/>
	<rect x="4.593999862670898" y="15.112000465393066" width="2.625" height="2.065999984741211" id="svg_4"/>
	<rect x="9.187999725341797" y="15.112000465393066" width="2.625" height="2.065999984741211" id="svg_5"/>
	<rect x="9.187999725341797" y="11.668000221252441" width="2.625" height="2.066999912261963" id="svg_6"/>
	<rect x="9.187999725341797" y="8.225000381469727" width="2.625" height="2.065999984741211" id="svg_7"/>
	<rect x="13.781000137329102" y="15.112000465393066" width="2.625" height="2.065999984741211" id="svg_8"/>
	<rect x="13.781000137329102" y="11.668000221252441" width="2.625" height="2.066999912261963" id="svg_9"/>
	<rect x="13.781000137329102" y="8.225000381469727" width="2.625" height="2.065999984741211" id="svg_10"/>
</g></g></svg>