<svg xmlns="http://www.w3.org/2000/svg" xmlns:xlink="http://www.w3.org/1999/xlink" version="1.1" width="23" height="23" enable-background="new 0 0 23 23" xml:space="preserve"><rect id="backgroundrect" width="100%" height="100%" x="0" y="0" fill="none" stroke="none"/>

<g class="currentLayer" style=""><title>Layer 1</title><path d="M20,2c0.542,0,1,0.458,1,1v17c0,0.542-0.458,1-1,1H3c-0.542,0-1-0.458-1-1V3c0-0.542,0.458-1,1-1H20 M20,0H3  C1.35,0,0,1.35,0,3v17c0,1.65,1.35,3,3,3h17c1.65,0,3-1.35,3-3V3C23,1.35,21.65,0,20,0L20,0z" id="svg_1" class="selected" fill-opacity="1" fill="#6a6a6a"/></g></svg>