<svg xmlns="http://www.w3.org/2000/svg" xmlns:xlink="http://www.w3.org/1999/xlink" version="1.1" width="27" height="23" enable-background="new 0 0 27 23" xml:space="preserve"><rect id="backgroundrect" width="100%" height="100%" x="0" y="0" fill="none" stroke="none"/>


<g class="currentLayer" style=""><title>Layer 1</title><g id="Layer_1" class="selected" fill-opacity="1" fill="#ffffff">
</g><g id="Layer_2" class="selected" fill-opacity="1" fill="#ffffff">
	<g id="svg_1" fill="#ffffff">
		<polygon points="7.285,7.486 4.456,10.315 12.239,18.098 26.171,4.166 23.343,1.337 12.239,12.439   " id="svg_2" fill="#ffffff"/>
		<path d="M21,20c0,0.542-0.458,1-1,1H3c-0.542,0-1-0.458-1-1V3c0-0.542,0.458-1,1-1h16.908l1.585-1.585C21.051,0.158,20.545,0,20,0    H3C1.35,0,0,1.35,0,3v17c0,1.65,1.35,3,3,3h17c1.65,0,3-1.35,3-3v-9.829l-2,2V20z" id="svg_3" fill="#ffffff"/>
	</g>
</g></g></svg>