<svg xmlns="http://www.w3.org/2000/svg" data-name="Layer 1" width="113" height="39"><rect id="backgroundrect" width="100%" height="100%" x="0" y="0" fill="none" stroke="none"/><title>logo_name</title><g class="currentLayer" style=""><title>Layer 1</title><path d="M46.84000366210938,28.219991455078116 a2.07,2.07 0 0 0 0.5800000000000001,-0.11000000000000001 v1.4 a3.41,3.41 0 0 1 -1.24,0.22000000000000003 a1.75,1.75 0 0 1 -1.75,-1 a5.08,5.08 0 0 1 -3.3,1.13 c-1.59,0 -3.06,-0.8700000000000001 -3.06,-2.68 c0,-2.24 2.08,-2.93 3.9,-2.93 a11.63,11.63 0 0 1 2.2800000000000002,0.26 v-0.31000000000000005 c0,-1.09 -0.8,-1.86 -2.3,-1.86 a7.79,7.79 0 0 0 -3.15,0.6700000000000002 v-1.79 a10.72,10.72 0 0 1 3.35,-0.5800000000000001 c2.48,0 4,1.18 4,3.83 v3.14 A0.5700000000000001,0.5700000000000001 0 0 0 46.84000366210938,28.219991455078116 zm-6.76,-1.19 a1.42,1.42 0 0 0 1.6400000000000001,1.29 a3.56,3.56 0 0 0 2.5300000000000002,-1 V25.809991455078148 a10.21,10.21 0 0 0 -1.9,-0.22000000000000003 C41.25000366210935,25.59999145507811 40.08000366210939,25.939991455078143 40.08000366210939,27.03999145507811 z" fill="#231f20" id="svg_1" class="selected" fill-opacity="1"/><path d="M53.06000366210935,20.61999145507815 a5.29,5.29 0 0 1 2.7,0.6700000000000002 v1.79 a4.28,4.28 0 0 0 -2.42,-0.7300000000000001 a2.89,2.89 0 1 0 0,5.76 a5.26,5.26 0 0 0 2.55,-0.6700000000000002 v1.8 a6.58,6.58 0 0 1 -2.9,0.6000000000000001 a4.42,4.42 0 0 1 -4.72,-4.54 A4.54,4.54 0 0 1 53.06000366210935,20.61999145507815 z" fill="#231f20" id="svg_2" class="selected" fill-opacity="1"/><path d="M65.84000366210938,28.219991455078116 a2.07,2.07 0 0 0 0.5800000000000001,-0.11000000000000001 v1.4 a3.41,3.41 0 0 1 -1.24,0.22000000000000003 a1.75,1.75 0 0 1 -1.75,-1 a5.08,5.08 0 0 1 -3.3,1.13 c-1.59,0 -3.06,-0.8700000000000001 -3.06,-2.68 c0,-2.24 2.08,-2.93 3.9,-2.93 a11.63,11.63 0 0 1 2.2800000000000002,0.26 v-0.31000000000000005 c0,-1.09 -0.8,-1.86 -2.3,-1.86 a7.79,7.79 0 0 0 -3.15,0.6700000000000002 v-1.79 a10.72,10.72 0 0 1 3.35,-0.5800000000000001 c2.48,0 4,1.18 4,3.83 v3.14 A0.5700000000000001,0.5700000000000001 0 0 0 65.84000366210938,28.219991455078116 zm-6.76,-1.19 a1.42,1.42 0 0 0 1.6400000000000001,1.29 a3.56,3.56 0 0 0 2.5300000000000002,-1 V25.809991455078148 a10.21,10.21 0 0 0 -1.9,-0.22000000000000003 C60.24000366210936,25.59999145507811 59.08000366210939,25.939991455078143 59.08000366210939,27.03999145507811 z" fill="#231f20" id="svg_3" class="selected" fill-opacity="1"/><path d="M76.67000366210937,16.84999145507811 V29.609991455078102 H74.91000366210938 v-1.3900000000000001 a4.07,4.07 0 0 1 -3.35,1.62 a4.62,4.62 0 0 1 0,-9.22 a4,4 0 0 1 3.15,1.37 v-5.14 h2 zM71.91000366210938,22.32999145507813 a2.9,2.9 0 0 0 0,5.8 a3,3 0 0 0 2.79,-1.84 v-2.13 A3.06,3.06 0 0 0 71.91000366210938,22.32999145507813 z" fill="#231f20" id="svg_4" class="selected" fill-opacity="1"/><path d="M82.99000366210936,20.61999145507815 c3.48,0 4.68,2.81 4.12,5.34 h-6.58 c0.22000000000000003,1.57 1.75,2.22 3.35,2.22 a6.41,6.41 0 0 0 2.77,-0.6200000000000001 v1.6800000000000002 a7.5,7.5 0 0 1 -3.14,0.6000000000000001 c-2.68,0 -5,-1.53 -5,-4.61 A4.39,4.39 0 0 1 82.99000366210936,20.61999145507815 zm0.09000000000000002,1.62 a2.39,2.39 0 0 0 -2.5700000000000003,2.26 h4.85 A2.06,2.06 0 0 0 83.08000366210939,22.239991455078098 z" fill="#231f20" id="svg_5" class="selected" fill-opacity="1"/><path d="M89.10000366210937,29.609991455078102 v-8.75 h1.73 v1.09 a4,4 0 0 1 2.92,-1.33 a3,3 0 0 1 2.73,1.4 a4.33,4.33 0 0 1 3.06,-1.4 a3.21,3.21 0 0 1 3.3200000000000003,3.52 v5.47 h-2 v-5.41 a1.6700000000000002,1.6700000000000002 0 0 0 -1.73,-1.84 a2.94,2.94 0 0 0 -2.17,1.18 c0,0.2 0,0.4 0,0.6000000000000001 v5.47 h-2 v-5.41 a1.6700000000000002,1.6700000000000002 0 0 0 -1.73,-1.84 a3.11,3.11 0 0 0 -2.3200000000000003,1.35 v5.91 h-2 z" fill="#231f20" id="svg_6" class="selected" fill-opacity="1"/><path d="M111.47000366210938,20.859991455078102 h2 l-4.1,9.93 c-0.9500000000000001,2.2800000000000002 -2.19,3 -3.52,3 a5,5 0 0 1 -1.15,-0.15000000000000002 v-1.6600000000000001 a3,3 0 0 0 0.8900000000000001,0.13 c0.9500000000000001,0 1.6600000000000001,-0.6700000000000002 2.17,-2 l0.18000000000000002,-0.44000000000000006 l-4.16,-8.82 H105.91000366210938 l3,6.6 z" fill="#231f20" id="svg_7" class="selected" fill-opacity="1"/><path d="M40.660003662109375,1.5299914550781182 v5 a4,4 0 0 1 2.83,-1.2 a3.41,3.41 0 0 1 3.6100000000000003,3.5700000000000003 v5.41 h-2 v-5.16 a1.9,1.9 0 0 0 -2,-2.1 a3.08,3.08 0 0 0 -2.44,1.46 v5.8 h-2 V1.5299914550781182 h2 z" fill="#231f20" id="svg_8" class="selected" fill-opacity="1"/><path d="M52.43000366210936,2.4199914550781045 v3.12 h3.17 v1.71 h-3.17 v4 c0,1.15 0.53,1.53 1.6600000000000001,1.53 a4.71,4.71 0 0 0 1.77,-0.35000000000000003 v1.6800000000000002 a7.14,7.14 0 0 1 -2.35,0.38000000000000006 a2.68,2.68 0 0 1 -3,-2.88 v-4.38 H48.910003662109375 v-1.71 h1.57 v-2.64 z" fill="#231f20" id="svg_9" class="selected" fill-opacity="1"/><path d="M58.10000366210937,14.289991455078109 v-8.75 h1.73 v1.09 a4,4 0 0 1 2.92,-1.33 a3,3 0 0 1 2.73,1.4 a4.33,4.33 0 0 1 3.06,-1.4 a3.21,3.21 0 0 1 3.3200000000000003,3.52 v5.47 h-2 v-5.41 a1.6700000000000002,1.6700000000000002 0 0 0 -1.73,-1.84 a2.94,2.94 0 0 0 -2.17,1.18 c0,0.2 0,0.4 0,0.6000000000000001 v5.47 h-2 v-5.41 a1.6700000000000002,1.6700000000000002 0 0 0 -1.73,-1.84 a3.11,3.11 0 0 0 -2.3200000000000003,1.35 v5.91 h-2 z" fill="#231f20" id="svg_10" class="selected" fill-opacity="1"/><rect x="74.72000122070312" y="1.5199999809265137" width="1.9500000476837158" height="12.760000228881836" fill="#231f20" id="svg_11" class="selected" fill-opacity="1"/><path d="M15.440003662109348,0.019991455078127274 l-0.16000000000000003,0 l-15.28,1.6 v28 L15.28000366210938,38.709991455078125 l15.28,-9.09 v-28 zm13.12,28.45 l-13.28,7.9 l-13.28,-7.9 V16.989991455078098 l13.22,7.87 l0,1.4300000000000002 l-9.07,-5.4 v1.3800000000000001 l9.11,5.47 l0,1.46 l-9.1,-5.42 v1.3800000000000001 l9.11,5.47 h0 l9.19,-5.5 v-1.3900000000000001 h0 v-4.52 l4.1,-2.45 v11.67 zm0,-13.16 L24.910003662109375,17.449991455078134 h0 l-1.6800000000000002,1 l-8,-4.76 v1.3800000000000001 l6.84,4.07 l-0.06000000000000001,0 l-0.15000000000000002,0.09000000000000002 l-1,0.5700000000000001 l-5.640000000000001,-3.36 v1.3800000000000001 l4.45,2.6500000000000004 l-1.05,0.7000000000000001 l0,0 l-3.36,-2 v1.3800000000000001 l2.21,1.3 l-2.25,1.35 l-13.16,-7.82 l13.17,-7.92 h0 zm0,-1.3900000000000001 l-13.35,-7.87 h0 l-13.2,7.86 v-10.5 l13.28,-1.3900000000000001 l13.28,1.3900000000000001 v10.51 z" fill="#231f20" id="svg_12" class="selected" fill-opacity="1"/></g></svg>